<?xml version="1.0" encoding="UTF-8"?>
<svg width="100px" height="100px" viewBox="0 0 100 100" version="1.1" xmlns="http://www.w3.org/2000/svg" xmlns:xlink="http://www.w3.org/1999/xlink">
    <title>Ikona - info</title>
    <g id="Page-1" stroke="none" stroke-width="1" fill="none" fill-rule="evenodd">
        <g id="Ikona---info" fill="#FF6200" fill-rule="nonzero">
            <path d="M55.389981,31.4774889 C55.4414168,32.3903379 55.1096846,33.2832575 54.4747155,33.9410974 C53.8397465,34.5989373 52.9591193,34.9620452 52.0450222,34.9429296 C51.1275162,34.9692844 50.2421086,34.6041335 49.6099162,33.9386678 C48.9777237,33.2732021 48.6584284,32.3702446 48.7317692,31.4552949 C48.6838462,30.2311998 49.3114327,29.079513 50.3660482,28.456222 C51.4206636,27.832931 52.7322336,27.838552 53.7814679,28.4708595 C54.8307022,29.103167 55.4483942,30.2601907 55.389981,31.4838301 L55.389981,31.4774889 Z M100,50 C100,77.6142375 77.6142375,100 50,100 C22.3857625,100 0,77.6142375 0,50 C0,22.3857625 22.3857625,0 50,0 C63.2608245,0 75.9785201,5.26784202 85.3553391,14.6446609 C94.732158,24.0214799 100,36.7391755 100,50 Z M97.9111492,50 C97.9111492,23.5394029 76.4605971,2.08885076 50,2.08885076 C23.5394029,2.08885076 2.08885076,23.5394029 2.08885076,50 C2.08885076,76.4605971 23.5394029,97.9111492 50,97.9111492 C76.4482381,97.8813358 97.8813358,76.4482381 97.9111492,50 Z M51.3982245,67.0038047 L48.7983513,67.4952441 L53.0469245,46.5694356 C53.2222457,45.7079126 52.9389305,44.8170421 52.29818,44.2150467 C51.6574296,43.6130514 50.750637,43.3857963 49.9017121,43.6144578 L45.9194673,44.6861129 C44.5667725,45.0503336 43.7654558,46.4421688 44.1296766,47.7948637 C44.4938974,49.1475586 45.8857325,49.9488752 47.2384274,49.5846544 L47.2606214,49.5846544 L43.0786303,70.1934052 C42.9273662,70.9392993 43.1190299,71.7136966 43.6007386,72.3029296 C44.0824474,72.8921627 44.8032853,73.2340014 45.5643627,73.2340014 C45.7218498,73.2345019 45.8790107,73.2196353 46.0336081,73.1896005 L52.3398859,71.9974635 C53.71622,71.7348043 54.619032,70.4061376 54.3563728,69.0298034 C54.0937136,67.6534693 52.7650469,66.7506573 51.3887127,67.0133164 L51.3982245,67.0038047 Z" id="Shape"></path>
        </g>
    </g>
</svg>