<?xml version="1.0" encoding="UTF-8"?>
<svg width="100px" height="100px" viewBox="0 0 100 100" version="1.1" xmlns="http://www.w3.org/2000/svg" xmlns:xlink="http://www.w3.org/1999/xlink">
    <title>Ikona - sukces</title>
    <g id="Page-1" stroke="none" stroke-width="1" fill="none" fill-rule="evenodd">
        <g id="Ikona---sukces" fill="#349651">
            <path d="M72.7058674,35.2392771 C73.6991609,36.2332219 73.6991609,37.8440341 72.7058674,38.8379789 L47.6963218,63.8507064 C45.4889853,66.0484673 41.9203312,66.0484673 39.7129948,63.8507064 L27.1254932,51.4413898 C26.1238313,50.454665 26.1117224,48.842759 27.0984472,47.8410971 C28.0851721,46.8394352 29.6970781,46.8273263 30.69874,47.8140512 L43.2957872,60.2233677 C43.4000811,60.3310726 43.5435965,60.3918757 43.6935217,60.3918757 C43.8434469,60.3918757 43.9869623,60.3310726 44.0912562,60.2233677 L69.0912562,35.2392771 C69.5692162,34.7573816 70.2198357,34.4863222 70.8985618,34.4863222 C71.5772879,34.4863222 72.2279073,34.7573816 72.7058674,35.2392771 Z M100,50 C100,77.6142375 77.6142375,100 50,100 C22.3857625,100 0,77.6142375 0,50 C0,22.3857625 22.3857625,0 50,0 C63.2608245,0 75.9785201,5.26784202 85.3553391,14.6446609 C94.732158,24.0214799 100,36.7391755 100,50 Z M68.3684577,5.65578275 C50.4326759,-1.77446888 29.7872286,2.33193125 16.059574,16.0600721 C2.3319195,29.7882129 -1.77433518,50.4343915 5.65565325,68.3708087 C13.0856417,86.3072259 30.5885665,98.0013754 50.0024017,98 C76.4977637,97.9718892 97.9700131,76.5004006 98,50.004102 C97.9979749,30.5895792 86.3042396,13.0860344 68.3684577,5.65578275 Z" id="Shape"></path>
        </g>
    </g>
</svg>